# xmcd
#
# Track frame offsets:
#	150
#	11565
#	21139
#	29815
#	48675
#	70284
#	78968
#	92218
#	112487
#	120753
#	130785
#	139739
#	148900
#	159333
#	170099
#	187918
#	201923
#	213237
#	221789
#	231263
#
# Disc length: 3237 seconds
#
# Revision: 1
# Processed by: cddbd v1.5.2PL0 Copyright (c) Steve Scherf et al.
# Submitted via: audiograbber 1.83.01
#
DISCID=2d0ca314
DTITLE=Johnny Cash - 100 Hits Legends CD5
DYEAR=2011
DGENRE=Country
TTITLE0=Seasons Of My Heart
TTITLE1=Smiling Bill McCall
TTITLE2=Second Honey Moon
TTITLE3=Slow Rider
TTITLE4=Dorraine Of Ponchartrain
TTITLE5=Old Doc Brown
TTITLE6=When Papa Played The Dobro
TTITLE7=Going To Memphis
TTITLE8=Time Changes Everything
TTITLE9=Just One More
TTITLE10=Honky-Tonk Girl
TTITLE11=I Will Miss You When You Go
TTITLE12=Why Do You Punish Me
TTITLE13=My Shoes Keep Walking Back To You
TTITLE14=Boss Jack
TTITLE15=Lumberjack
TTITLE16=I Saw a Man
TTITLE17=Are All The Children In
TTITLE18=I'd Just Be Fool Enough (To Fall)
TTITLE19=Transfusion Blues
EXTD=
EXTT0=
EXTT1=
EXTT2=
EXTT3=
EXTT4=
EXTT5=
EXTT6=
EXTT7=
EXTT8=
EXTT9=
EXTT10=
EXTT11=
EXTT12=
EXTT13=
EXTT14=
EXTT15=
EXTT16=
EXTT17=
EXTT18=
EXTT19=
PLAYORDER=
